<svg width="48" height="37" viewBox="0 0 48 37" fill="none" xmlns="http://www.w3.org/2000/svg">
<path d="M40.634 3.31115C37.5747 1.90738 34.294 0.873152 30.8638 0.280805C30.8013 0.269373 30.7389 0.297942 30.7067 0.355083C30.2848 1.10551 29.8175 2.08451 29.4902 2.854C25.8008 2.30166 22.1304 2.30166 18.5166 2.854C18.1893 2.06741 17.705 1.10551 17.2811 0.355083C17.249 0.299849 17.1866 0.271279 17.1241 0.280805C13.6958 0.871259 10.4151 1.90549 7.35387 3.31115C7.32737 3.32257 7.30465 3.34164 7.28958 3.36638C1.06678 12.6631 -0.6379 21.7313 0.19836 30.6871C0.202144 30.7309 0.22674 30.7728 0.260796 30.7995C4.36642 33.8145 8.34341 35.645 12.2466 36.8582C12.309 36.8773 12.3752 36.8544 12.415 36.803C13.3383 35.5421 14.1613 34.2127 14.867 32.8146C14.9086 32.7327 14.8688 32.6356 14.7837 32.6032C13.4783 32.108 12.2352 31.5042 11.0395 30.8185C10.9449 30.7633 10.9373 30.628 11.0243 30.5632C11.2759 30.3747 11.5276 30.1785 11.7679 29.9804C11.8114 29.9443 11.872 29.9366 11.9231 29.9595C19.7786 33.546 28.2831 33.546 36.0459 29.9595C36.097 29.9347 36.1576 29.9424 36.203 29.9785C36.4433 30.1766 36.6949 30.3747 36.9484 30.5632C37.0354 30.628 37.0298 30.7633 36.9352 30.8185C35.7394 31.5175 34.4964 32.108 33.189 32.6013C33.1039 32.6337 33.0661 32.7327 33.1077 32.8146C33.8285 34.2107 34.6515 35.5402 35.5578 36.8011C35.5956 36.8544 35.6637 36.8773 35.7262 36.8582C39.6483 35.645 43.6252 33.8145 47.7309 30.7995C47.7668 30.7728 47.7895 30.7328 47.7933 30.689C48.7942 20.3351 46.117 11.3413 40.6964 3.36827C40.6832 3.34164 40.6605 3.32257 40.634 3.31115ZM16.04 25.234C13.675 25.234 11.7263 23.0627 11.7263 20.3961C11.7263 17.7295 13.6372 15.5582 16.04 15.5582C18.4617 15.5582 20.3916 17.7486 20.3538 20.3961C20.3538 23.0627 18.4428 25.234 16.04 25.234ZM31.9895 25.234C29.6245 25.234 27.6758 23.0627 27.6758 20.3961C27.6758 17.7295 29.5867 15.5582 31.9895 15.5582C34.4113 15.5582 36.3411 17.7486 36.3033 20.3961C36.3033 23.0627 34.4113 25.234 31.9895 25.234Z" fill="white"/>
</svg>
