<svg width="48" height="48" viewBox="0 0 48 48" fill="none" xmlns="http://www.w3.org/2000/svg">
<path d="M27.0749 23.6554C27.0749 31.1968 21.0139 37.3103 13.5377 37.3103C6.06146 37.3103 0 31.1955 0 23.6554C0 16.1153 6.061 10 13.5377 10C21.0143 10 27.0749 16.114 27.0749 23.6554Z" fill="white"/>
<path d="M41.9256 23.6553C41.9256 30.7539 38.8951 36.5108 35.1568 36.5108C31.4184 36.5108 28.3879 30.7539 28.3879 23.6553C28.3879 16.5567 31.418 10.7998 35.1563 10.7998C38.8947 10.7998 41.9252 16.5548 41.9252 23.6553" fill="white"/>
<path d="M48 23.6552C48 30.0138 46.9343 35.1717 45.6194 35.1717C44.3044 35.1717 43.2392 30.0152 43.2392 23.6552C43.2392 17.2952 44.3049 12.1387 45.6194 12.1387C46.9338 12.1387 48 17.2947 48 23.6552Z" fill="white"/>
</svg>
