<svg width="48" height="40" viewBox="0 0 48 40" fill="currentColor" xmlns="http://www.w3.org/2000/svg">
<path d="M15.1003 39.5005C33.2091 39.5005 43.1166 24.4939 43.1166 11.4842C43.1166 11.0623 43.1072 10.6311 43.0884 10.2092C45.0158 8.81541 46.679 7.089 48 5.11108C46.205 5.90969 44.2993 6.43125 42.3478 6.65796C44.4026 5.4263 45.9411 3.49143 46.6781 1.21202C44.7451 2.3576 42.6312 3.16571 40.4269 3.60171C38.9417 2.02361 36.978 0.978721 34.8394 0.62859C32.7008 0.27846 30.5064 0.642589 28.5955 1.66468C26.6846 2.68677 25.1636 4.3099 24.2677 6.28311C23.3718 8.25632 23.1509 10.4697 23.6391 12.5811C19.725 12.3847 15.8959 11.3679 12.4 9.59669C8.90405 7.82547 5.81939 5.33936 3.34594 2.29952C2.0888 4.46698 1.70411 7.03178 2.27006 9.47267C2.83601 11.9136 4.31013 14.0474 6.39281 15.4405C4.82926 15.3908 3.29995 14.9698 1.93125 14.2123V14.3342C1.92985 16.6088 2.7162 18.8137 4.15662 20.574C5.59704 22.3344 7.60265 23.5416 9.8325 23.9905C8.38411 24.3867 6.86396 24.4445 5.38969 24.1592C6.01891 26.1154 7.24315 27.8263 8.89154 29.0532C10.5399 30.28 12.5302 30.9617 14.5847 31.003C11.0968 33.7427 6.78835 35.2287 2.35313 35.2217C1.56657 35.2205 0.780798 35.1723 0 35.0773C4.50571 37.968 9.74706 39.5033 15.1003 39.5005Z" fill="currentColor"/>
</svg>
