<svg width="48" height="34" viewBox="0 0 48 34" fill="none" xmlns="http://www.w3.org/2000/svg">
<path d="M47.5219 7.39961C47.5219 7.39961 47.0531 4.09023 45.6094 2.63711C43.7812 0.72461 41.7375 0.715234 40.8 0.602734C34.0875 0.115234 24.0094 0.115234 24.0094 0.115234H23.9906C23.9906 0.115234 13.9125 0.115234 7.2 0.602734C6.2625 0.715234 4.21875 0.72461 2.39062 2.63711C0.946875 4.09023 0.4875 7.39961 0.4875 7.39961C0.4875 7.39961 0 11.2902 0 15.1715V18.809C0 22.6902 0.478125 26.5809 0.478125 26.5809C0.478125 26.5809 0.946875 29.8902 2.38125 31.3434C4.20937 33.2559 6.60938 33.1902 7.67813 33.3965C11.5219 33.7621 24 33.8746 24 33.8746C24 33.8746 34.0875 33.8559 40.8 33.3777C41.7375 33.2652 43.7812 33.2559 45.6094 31.3434C47.0531 29.8902 47.5219 26.5809 47.5219 26.5809C47.5219 26.5809 48 22.6996 48 18.809V15.1715C48 11.2902 47.5219 7.39961 47.5219 7.39961ZM19.0406 23.2246V9.73398L32.0062 16.5027L19.0406 23.2246Z" fill="white"/>
</svg>
